HIERARCHY
ROOT Hips
{
	OFFSET -3.958830 18.904000 13.208200
	CHANNELS 6 Xposition Yposition Zposition Zrotation Yrotation Xrotation 
	JOINT LHipJoint
	{
		OFFSET 0.000000 0.000000 0.000000
		CHANNELS 3 Zrotation Yrotation Xrotation
		JOINT LeftUpLeg
		{
			OFFSET 1.800000 -1.400000 0.085000
			CHANNELS 3 Zrotation Yrotation Xrotation
			JOINT LeftLeg
			{
				OFFSET 2.215000 -6.000000 0.000000
				CHANNELS 3 Zrotation Yrotation Xrotation
				JOINT LeftFoot
				{
					OFFSET 2.500000 -6.900000 0.000000
					CHANNELS 3 Zrotation Yrotation Xrotation
					JOINT LeftToeBase
					{
						OFFSET 0.200000 -0.500000 1.950000
						CHANNELS 3 Zrotation Yrotation Xrotation
						End Site
						{
							OFFSET 0.000000 0.000000 0.000000
						}
					}
				}
			}
		}
	}
	JOINT RHipJoint
	{
		OFFSET 0.000000 0.000000 0.000000
		CHANNELS 3 Zrotation Yrotation Xrotation
		JOINT RightUpLeg
		{
			OFFSET -1.800000 -1.400000 0.085000
			CHANNELS 3 Zrotation Yrotation Xrotation
			JOINT RightLeg
			{
				OFFSET -2.215000 -6.000000 0.000000
				CHANNELS 3 Zrotation Yrotation Xrotation
				JOINT RightFoot
				{
					OFFSET -2.500000 -6.900000 0.000000
					CHANNELS 3 Zrotation Yrotation Xrotation
					JOINT RightToeBase
					{
						OFFSET -0.200000 -0.500000 1.950000
						CHANNELS 3 Zrotation Yrotation Xrotation
						End Site
						{
							OFFSET 0.000000 0.000000 0.000000
						}
					}
				}
			}
		}
	}
	JOINT LowerBack
	{
		OFFSET 0.000000 0.000000 0.000000
		CHANNELS 3 Zrotation Yrotation Xrotation
		JOINT Spine
		{
			OFFSET -0.087000 1.940000 -0.288900
			CHANNELS 3 Zrotation Yrotation Xrotation
			JOINT Spine1
			{
				OFFSET 0.000000 1.950000 0.060000
				CHANNELS 3 Zrotation Yrotation Xrotation
				JOINT Neck
				{
					OFFSET 0.000000 0.000000 0.000000
					CHANNELS 3 Zrotation Yrotation Xrotation
					JOINT Neck1
					{
						OFFSET 0.000000 1.600000 0.340000
						CHANNELS 3 Zrotation Yrotation Xrotation
						JOINT Head
						{
							OFFSET 0.000000 1.667000 -0.240000
							CHANNELS 3 Zrotation Yrotation Xrotation
							End Site
							{
								OFFSET 0.000000 0.000000 0.000000
							}
						}
					}
				}
				JOINT LeftShoulder
				{
					OFFSET 0.000000 0.000000 0.000000
					CHANNELS 3 Zrotation Yrotation Xrotation
					JOINT LeftArm
					{
						OFFSET 2.700000 1.550000 -0.730000
						CHANNELS 3 Zrotation Yrotation Xrotation
						JOINT LeftForeArm
						{
							OFFSET 5.450000 0.000000 0.000000
							CHANNELS 3 Zrotation Yrotation Xrotation
							JOINT LeftHand
							{
								OFFSET 3.450000 0.000000 0.000000
								CHANNELS 3 Zrotation Yrotation Xrotation
								JOINT LeftHandIndex1
								{
									OFFSET 0.750000 0.000000 0.000000
									CHANNELS 3 Zrotation Yrotation Xrotation
									End Site
									{
										OFFSET 0.000000 0.000000 0.000000
									}
								}
							}
						}
					}
				}
				JOINT RightShoulder
				{
					OFFSET 0.000000 0.000000 0.000000
					CHANNELS 3 Zrotation Yrotation Xrotation
					JOINT RightArm
					{
						OFFSET -2.700000 1.550000 -0.730000
						CHANNELS 3 Zrotation Yrotation Xrotation
						JOINT RightForeArm
						{
							OFFSET -5.450000 0.000000 0.000000
							CHANNELS 3 Zrotation Yrotation Xrotation
							JOINT RightHand
							{
								OFFSET -3.450000 0.000000 0.000000
								CHANNELS 3 Zrotation Yrotation Xrotation
								JOINT RightHandIndex1
								{
									OFFSET -0.750000 0.000000 0.000000
									CHANNELS 3 Zrotation Yrotation Xrotation
									End Site
									{
										OFFSET 0.000000 0.000000 0.000000
									}
								}
							}
						}
					}
				}
			}
		}
	}
}
MOTION
Frames: 13
Frame Time: 0.016667
0.409500 12.972620 -0.424010 -167.055971 12.088763 161.295728 -15.874011 11.491898 4.650775 28.044979 -4.258664 -20.833444 -96.457342 68.480032 31.227669 2.576082 12.640343 0.444949 0.333670 0.291750 0.286140 18.056479 -7.267368 4.296002 -14.577192 0.650119 -59.781608 -14.103395 -2.193028 15.782585 -0.173126 -2.247269 3.278900 0.168790 -0.170740 -0.009680 -2.335766 -3.442972 -9.538498 7.522136 3.323822 45.848057 11.573924 8.732795 -1.796564 -0.432598 12.805952 -7.048547 21.383089 -24.119308 36.781040 15.842690 -15.592380 -11.079470 -10.978260 5.052303 -1.192940 -15.970725 9.024016 -8.319149 27.337237 -78.620096 -20.183891 -3.228564 3.396532 0.337450 -0.221100 0.218060 0.019920 12.455880 -7.708966 3.456897 41.765395 -16.661916 -8.627427 -5.410561 0.041656 0.382156 2.812479 -1.039279 -0.004430 0.101160 -0.127670 -0.078090 
0.443180 13.105990 -0.396840 -166.731663 15.940479 162.688550 -15.786629 11.497900 4.365838 28.450467 -4.303780 -17.953733 -101.935529 63.152421 25.156309 2.653982 12.817060 0.404200 0.271220 0.235150 0.198530 18.128196 -7.431594 4.458731 -15.237125 -0.135169 -62.186565 -18.281587 -2.134730 24.990001 -0.289453 -3.544842 2.821907 0.137010 -0.111330 0.007610 -2.574236 -3.288691 -9.533205 9.656263 1.207393 44.404012 10.667376 7.390055 -5.182827 -0.073322 12.923020 -4.958769 21.172196 -24.858362 36.365913 15.947140 -17.584550 -9.224810 -11.457156 10.491373 -1.687531 -14.654666 13.950547 -6.968558 12.656217 -79.980295 -9.870080 -3.384589 3.780372 0.267630 -0.173190 0.164410 0.018830 12.846191 -13.693760 0.971484 42.117716 -20.074815 -9.980533 -0.544756 -1.632696 -0.095711 2.833856 -0.937468 0.010070 0.084080 -0.084300 -0.036460 
0.493430 13.230300 -0.433880 -166.980773 20.756802 163.742534 -15.663022 11.153437 4.360576 29.283851 -4.384409 -15.405340 -105.318308 57.089034 20.367183 2.771528 12.896290 0.414857 0.194780 0.134950 0.145060 18.261465 -7.657298 4.526537 -15.876912 -1.133301 -63.786513 -25.366862 -0.964697 35.390502 -0.557178 -5.525208 2.157838 0.053890 -0.103250 -0.005240 -3.022889 -2.672420 -9.662984 12.656393 -0.888836 41.413724 8.621377 5.782284 -7.275454 -0.106812 12.104755 -4.715860 19.428948 -25.523981 39.913677 14.374630 -20.269750 -4.726240 -7.102211 14.979311 -1.000466 -17.219049 15.670872 -6.654079 -20.982943 -74.523229 13.598007 -3.202771 4.207988 0.222810 -0.165190 0.131420 0.017160 8.524748 -18.804077 0.059944 45.184250 -24.890655 -12.199934 1.485402 -6.552653 -0.137858 2.979764 -0.820161 0.025380 0.047480 -0.075030 -0.010900 
0.550540 13.388130 -0.485630 -167.594095 25.931844 162.655156 -15.505964 10.983971 4.444139 28.789056 -5.100262 -11.393462 -105.675678 53.022716 18.617903 2.801610 12.834590 0.423140 0.100710 -0.014870 0.136000 18.369781 -8.125127 4.305485 -16.246738 -2.215390 -61.864946 -32.145467 1.244108 41.852520 -0.856230 -7.114789 1.646499 -0.062980 -0.137210 -0.016120 -3.493987 -2.017054 -9.669457 16.014356 -3.855931 40.447334 4.451192 2.869605 -8.736445 0.323392 10.771240 -5.371250 17.343888 -25.426342 45.297921 12.437860 -22.002710 -0.318180 -2.373132 17.935965 -0.573513 -18.518482 18.931828 -8.228323 -19.492963 -65.281421 11.007560 -3.050973 4.298134 0.247020 -0.187080 0.132360 -0.026130 2.771200 -22.386895 1.338277 47.723797 -32.062078 -16.108503 5.877562 -0.433096 -1.024634 2.917015 -0.711384 0.020940 0.004580 -0.049010 -0.029040 
0.645930 13.551020 -0.510610 -168.731343 30.921632 161.094913 -15.468252 10.861890 4.578263 27.460713 -6.273327 -9.589342 -103.772906 50.866364 19.266655 2.780085 12.816309 0.403352 0.062090 -0.094140 0.147430 18.395605 -8.348295 4.117397 -17.726684 -3.296869 -59.932075 -37.509296 4.078848 50.016472 -1.266527 -8.943597 1.076259 -0.116580 -0.177080 -0.027070 -3.692665 -1.810126 -9.692504 17.605454 -5.247446 39.972747 2.609239 1.317732 -9.450406 0.338799 9.701140 -6.028139 15.354190 -26.189941 49.134305 10.624680 -24.124400 1.729040 -0.580416 18.429474 -0.277158 -18.331767 21.289755 -9.140189 -17.943920 -61.523162 9.564160 -2.992863 4.263883 0.282470 -0.221590 0.143470 -0.058700 0.785149 -22.654883 2.083831 48.658508 -35.157542 -16.757544 4.463632 -4.994008 -0.696568 3.052696 -0.578911 0.013290 -0.008110 -0.029660 -0.046110 
0.746030 13.679200 -0.477720 -170.453356 36.948769 158.475679 -15.512230 10.869716 4.717395 26.211240 -7.684206 -10.620552 -97.637768 53.652633 25.029428 2.783170 12.930860 0.372684 0.034710 -0.132100 0.140800 18.348783 -8.408446 3.962708 -17.381500 -3.105461 -58.374124 -42.978080 7.815640 55.557485 -1.671517 -10.498921 0.657083 -0.141900 -0.177890 -0.042270 -3.642018 -1.920444 -9.702845 17.521391 -5.892160 42.430839 1.417420 0.538564 -10.489333 0.545403 9.520323 -6.112812 14.657677 -26.616356 48.718374 10.685460 -25.295310 1.666950 -0.789452 18.240707 -0.261043 -16.021269 22.481597 -8.546523 -20.680365 -62.845485 11.132978 -2.959565 4.275570 0.295640 -0.230910 0.141780 -0.067660 0.494597 -22.612369 2.518762 47.243915 -38.189081 -16.918404 3.246430 -4.754664 -0.546449 3.071248 -0.527796 0.000340 0.004060 -0.021510 -0.048270 
0.836700 13.826920 -0.391380 -172.469835 43.606399 153.632401 -15.517881 10.854616 4.963716 26.021910 -9.836955 -10.591470 -92.941616 55.756771 30.198011 2.790493 12.978839 0.351948 0.021940 -0.142950 0.108070 18.335003 -8.434877 3.759082 -17.048465 -2.882386 -55.960832 -49.005638 13.067019 62.952762 -2.261010 -12.562272 0.148848 -0.157940 -0.176150 -0.075720 -3.660636 -2.216232 -9.767892 17.683944 -8.216658 47.806727 -0.042270 -2.135191 -10.629746 0.060388 7.306858 -5.816856 8.485446 -23.110562 52.047389 13.129800 -26.036620 -0.726120 -1.482859 16.618512 -0.321927 -13.476260 20.196991 -7.045301 -23.534873 -61.068990 12.607527 -2.962099 4.136750 0.334310 -0.281700 0.153740 -0.059940 2.218041 -20.639607 2.484494 45.624491 -37.399979 -16.163222 1.409433 -3.086464 -0.230012 3.074929 -0.508491 -0.011740 0.036950 -0.013870 -0.031260 
0.941600 13.954430 -0.294480 -175.801896 51.872413 148.111631 -15.556814 10.803345 5.134791 26.983694 -10.687480 -11.918866 -91.493055 57.217890 32.553703 2.709889 12.971935 0.298814 0.065070 -0.103960 0.164800 18.302738 -8.325785 3.696589 -14.752282 -0.319407 -53.626777 -54.688580 19.738782 70.688369 -2.990648 -14.937043 -0.389085 -0.131570 -0.232720 -0.083240 -3.535528 -2.451608 -9.824352 15.446903 -7.982613 52.020318 -0.512363 -2.997670 -7.637903 0.214164 6.507580 -7.452007 6.277138 -21.306440 54.785874 14.832540 -24.649980 -4.128520 -3.849122 11.819210 0.051394 -12.607661 19.010733 -6.670521 -34.335670 -63.351775 19.484991 -3.004502 3.882514 0.434010 -0.342890 0.216500 -0.083790 4.301154 -15.744588 3.786766 47.878659 -36.260278 -17.247688 -0.033561 0.770889 -0.065313 2.990215 -0.513767 -0.030150 0.060200 -0.014070 -0.070680 
1.102520 14.023830 -0.249510 179.781807 59.412491 142.911558 -15.596610 10.454965 5.510691 28.264720 -11.261654 -16.763775 -86.688450 62.219065 39.053692 2.707670 13.127923 0.240213 0.158620 0.030710 0.217600 18.324616 -8.183380 3.574408 -14.733070 1.745784 -51.233494 -53.748660 23.757258 83.712271 -3.668100 -17.310198 -0.867280 -0.045450 -0.266890 -0.064750 -3.526941 -2.229688 -9.926295 13.754450 -6.939838 52.392137 -1.234157 -3.208734 -3.942751 0.748885 7.013233 -7.895214 7.295220 -21.206838 55.144998 14.791230 -22.636760 -7.028830 -6.308623 8.477107 -0.201294 -10.001051 16.591014 -5.792510 -33.420285 -59.046323 17.730352 -3.068621 3.743635 0.447380 -0.353880 0.260760 -0.072980 5.983521 -13.026976 4.199108 47.324193 -33.051101 -16.254965 -0.251915 0.520030 -0.052908 2.949417 -0.589844 -0.006380 0.070330 -0.046450 -0.078460 
1.233940 14.072350 -0.212430 174.812557 66.409345 137.285316 -15.571785 9.871888 6.235237 30.647265 -12.246622 -21.889064 -76.356599 66.278844 49.449900 2.814734 13.757972 0.078757 0.226810 0.134640 0.243040 18.467061 -8.125222 3.053340 -15.404897 2.637524 -48.147077 -46.489309 21.343204 98.607539 -3.926344 -18.232096 -1.037110 0.028660 -0.264220 -0.051440 -3.201243 -2.302465 -10.109074 12.598217 -5.009051 53.038256 -0.158737 -1.589049 -1.147797 0.806084 7.898024 -8.086973 8.991788 -22.652011 54.567609 15.112330 -22.234900 -8.706670 -8.698214 6.133469 -0.736116 -6.851474 14.439693 -4.846057 -25.370398 -58.305560 13.525340 -3.133184 3.671636 0.437770 -0.341750 0.277080 -0.054500 8.352751 -10.625432 4.664233 45.051085 -31.688813 -14.912135 0.016959 0.283286 -0.150970 2.894295 -0.661704 0.007260 0.091820 -0.067660 -0.072040 
1.299990 14.080050 -0.114310 163.527715 73.697962 125.890484 -15.539172 9.117119 6.820577 33.477199 -12.408103 -27.460075 -66.393255 66.539256 57.689695 3.016487 14.793880 -0.189384 0.331430 0.290030 0.281360 18.627727 -8.028952 2.791703 -15.508752 3.873869 -46.508529 -39.781084 14.693915 110.095785 -3.831412 -17.559390 -0.907669 0.123000 -0.283140 -0.040310 -2.947001 -2.338374 -10.336212 10.700713 -2.860129 54.476755 0.569549 0.296157 1.807851 0.562479 8.488111 -8.485529 10.134630 -24.068018 53.330497 16.482670 -21.789030 -12.000680 -10.172219 3.301448 -0.994782 -4.664732 11.075772 -4.371075 -19.384159 -61.006598 11.332596 -3.144818 3.615702 0.438250 -0.358740 0.320520 -0.021760 10.151499 -7.347010 5.272100 43.947468 -27.869443 -13.400990 0.394703 0.780373 -0.237527 2.836183 -0.761657 0.039970 0.115400 -0.111850 -0.055320 
1.347240 14.090410 0.009500 125.264695 79.575592 87.147682 -15.800521 8.411864 7.053596 35.954372 -12.009885 -30.710403 -57.306656 63.707460 63.134161 3.189420 15.866897 -0.466179 0.396050 0.395300 0.273750 18.439162 -8.093586 2.828750 -13.239377 5.857559 -45.127903 -35.015377 7.662987 116.726719 -3.667102 -16.701425 -0.731880 0.193500 -0.252910 -0.038020 -3.086652 -2.487477 -10.474143 6.821318 -0.110348 56.781236 0.886101 2.162051 4.783618 -0.297406 8.224428 -8.681676 9.259560 -23.359328 52.880732 18.422650 -20.742010 -13.951250 -11.060503 -0.178488 -1.593710 -2.041198 5.504739 -4.784234 0.792443 -66.870408 1.103606 -3.154198 3.443590 0.426840 -0.359210 0.330940 0.019240 12.519627 -2.834721 6.284022 41.681799 -22.699716 -11.042504 0.027544 4.659580 -0.201287 2.728590 -0.892386 0.052170 0.151820 -0.132230 -0.023570 
1.394450 14.088630 0.073030 66.747959 76.646167 28.900454 -16.338328 8.547072 7.226881 39.721753 -9.211148 -33.289092 -49.770080 59.642087 65.169058 3.121554 16.293544 -0.624386 0.431450 0.453420 0.273720 18.004248 -7.470424 2.867911 -12.668595 7.786033 -43.023975 -28.320780 -3.417840 120.014130 -3.465328 -15.936324 -0.590216 0.250640 -0.222790 -0.024520 -3.241714 -2.244775 -10.593597 4.099810 2.780474 57.303775 1.117159 4.920128 7.074153 -0.504526 8.567322 -8.783975 10.049560 -23.275427 50.919714 17.900960 -19.228010 -14.782090 -14.789939 -4.901370 -2.209183 3.145885 2.600566 -5.680405 17.644272 -68.672720 -8.880911 -3.181874 3.236742 0.407630 -0.330610 0.318460 0.032860 16.224982 2.443213 8.036776 36.542757 -19.255133 -8.166536 -0.686138 7.872431 -0.132439 2.613587 -1.016269 0.047000 0.172780 -0.129480 -0.017170 
